<svg width="27" height="34" viewBox="0 0 27 34" fill="none" xmlns="http://www.w3.org/2000/svg">
<path d="M1.91977 15.0056C2.02243 15.0044 2.1251 15.0032 2.23087 15.002C2.57379 14.9991 2.91644 15.0021 3.25936 15.0051C3.50563 15.0043 3.7519 15.0031 3.99816 15.0015C4.66629 14.9984 5.33432 15.0006 6.00244 15.0039C6.70177 15.0066 7.4011 15.0051 8.10043 15.0043C9.27483 15.0035 10.4492 15.0062 11.6236 15.0109C12.9811 15.0162 14.3386 15.0162 15.6962 15.0133C17.0024 15.0107 18.3085 15.0118 19.6147 15.0147C20.1705 15.0158 20.7262 15.0157 21.282 15.0144C21.9365 15.0131 22.591 15.0152 23.2455 15.0198C23.4857 15.0209 23.7258 15.0209 23.966 15.0197C24.294 15.0183 24.6217 15.0209 24.9497 15.0247C25.1331 15.0251 25.3166 15.0256 25.5056 15.0261C26.0897 15.1282 26.3469 15.3388 26.7661 15.7818C26.942 16.1623 26.9417 16.3723 26.9439 16.7949C26.9456 17.0076 26.9456 17.0076 26.9473 17.2245C26.9477 17.3804 26.9481 17.5362 26.9486 17.6968C26.9496 17.8607 26.9506 18.0246 26.9517 18.1935C26.9547 18.7375 26.9565 19.2816 26.9581 19.8256C26.9587 20.0111 26.9593 20.1966 26.96 20.3878C26.9632 21.3695 26.9654 22.3513 26.9669 23.3331C26.9686 24.3482 26.9739 25.3632 26.9801 26.3783C26.9841 27.1579 26.9854 27.9375 26.986 28.7171C26.9868 29.0914 26.9886 29.4656 26.9914 29.8398C26.9952 30.3634 26.9951 30.8868 26.994 31.4103C26.997 31.6426 26.997 31.6426 27 31.8795C26.9947 32.5834 26.9759 32.9584 26.6292 33.5705C26.2384 33.9553 26.0669 33.9995 25.5448 33.999C25.402 33.9993 25.2592 33.9997 25.1121 34C24.9641 33.996 24.8162 33.992 24.6637 33.9879C24.5151 33.9897 24.3666 33.9916 24.2135 33.9934C23.1252 33.9811 23.1252 33.9811 22.7957 33.6182C22.5185 33.1084 22.521 32.7622 22.5186 32.172C22.5155 31.853 22.5155 31.853 22.5123 31.5275C22.5123 31.296 22.5123 31.0645 22.5122 30.833C22.5104 30.5949 22.5084 30.3569 22.506 30.1188C22.5004 29.4927 22.4973 28.8666 22.495 28.2404C22.4911 27.2383 22.485 26.2361 22.4761 25.234C22.4735 24.8843 22.4729 24.5347 22.4725 24.185C22.4701 23.866 22.4701 23.866 22.4677 23.5406C22.4667 23.2599 22.4667 23.2599 22.4657 22.9735C22.4254 22.4863 22.3765 22.2157 22.1156 21.819C21.6726 21.5296 21.3404 21.4411 20.8259 21.4377C20.6932 21.436 20.5604 21.4343 20.4236 21.4326C20.2792 21.4325 20.1348 21.4324 19.986 21.4323C19.8329 21.4309 19.6799 21.4295 19.5222 21.428C19.0159 21.424 18.5097 21.4225 18.0035 21.4214C17.6517 21.4199 17.2999 21.4184 16.9482 21.4168C16.2108 21.414 15.4733 21.4128 14.7359 21.4123C13.7906 21.4114 12.8454 21.405 11.9002 21.3974C11.1737 21.3924 10.4472 21.3912 9.72072 21.391C9.37219 21.3903 9.02367 21.3882 8.67516 21.3847C8.18787 21.3802 7.70082 21.381 7.21352 21.3831C6.99738 21.3794 6.99738 21.3794 6.77688 21.3756C6.10022 21.3839 5.77479 21.4153 5.20654 21.8425C4.85371 22.4109 4.81339 22.7089 4.81644 23.3893C4.8154 23.6014 4.81436 23.8135 4.81328 24.032C4.81455 24.1445 4.81582 24.257 4.81712 24.3729C4.82107 24.7269 4.82031 25.0806 4.81838 25.4347C4.81517 26.186 4.81821 26.9372 4.82163 27.6886C4.82491 28.5596 4.8256 29.4305 4.82155 30.3015C4.82103 30.6495 4.82432 30.9972 4.82782 31.3451C4.82726 31.5573 4.82671 31.7694 4.82613 31.9879C4.82709 32.1742 4.82805 32.3605 4.82904 32.5524C4.73631 33.172 4.5384 33.4516 4.13375 33.8935C3.76013 33.9994 3.76013 33.9994 3.34898 33.999C3.19991 33.9993 3.05084 33.9997 2.89725 34C2.74258 33.996 2.58792 33.992 2.42857 33.9879C2.2739 33.9897 2.11924 33.9916 1.95989 33.9934C0.844444 33.9813 0.844444 33.9813 0.395174 33.6556C-0.0507622 32.9942 0.0155063 32.3735 0.0206307 31.5743C0.0192951 31.407 0.0179596 31.2398 0.0165835 31.0675C0.0130623 30.5144 0.0141172 29.9613 0.0155215 29.4082C0.0147102 29.0239 0.0137375 28.6396 0.0126097 28.2553C0.0109953 27.4496 0.0117064 26.644 0.0139698 25.8383C0.0166337 24.8055 0.0129934 23.7728 0.00753825 22.7401C0.00413487 21.9463 0.00435469 21.1526 0.00564168 20.3589C0.00576889 19.9781 0.00470163 19.5973 0.00242183 19.2166C-0.000276849 18.6842 0.00196731 18.1521 0.00549237 17.6197C0.00367988 17.4622 0.0018674 17.3048 0 17.1425C0.00196157 16.997 0.00392314 16.8515 0.00594415 16.7016C0.00603504 16.5758 0.00612592 16.4501 0.00621957 16.3205C0.283447 15.2612 0.988852 15.0061 1.91977 15.0056Z" fill="#009D4B"/>
<path d="M23.1899 0.00886632C23.3218 0.00690714 23.4538 0.00494795 23.5898 0.0029294C23.7157 0.00262006 23.8416 0.00231071 23.9714 0.00199199C24.142 0.00100596 24.142 0.00100596 24.316 0C24.5995 0.0388634 24.5995 0.0388634 24.8924 0.358832C25.3872 4.18595 24.125 9.28732 22.1343 12.4663C21.4051 13.0499 20.685 12.9364 19.8048 12.9157C19.5333 12.914 19.5333 12.914 19.2563 12.9123C18.7768 12.9086 18.2976 12.9014 17.8182 12.8925C17.3283 12.8843 16.8384 12.8808 16.3484 12.8767C15.3885 12.8679 14.4287 12.8545 13.4688 12.8376C13.9677 12.1893 14.4724 11.5624 15.0278 10.9703C15.1504 10.8385 15.2731 10.7068 15.3994 10.571C15.5901 10.3665 15.5901 10.3665 15.7846 10.1579C17.4002 8.40496 18.7177 6.63272 19.9129 4.51843C19.3433 4.77496 18.942 5.20031 18.5033 5.65831C17.9824 6.20081 17.4497 6.70361 16.8802 7.18504C16.0893 7.8691 15.3968 8.63712 14.6968 9.42887C10.8102 13.8118 10.8102 13.8118 9.32566 14C9.15632 13.9988 9.15632 13.9988 8.98355 13.9975C8.8699 13.9983 8.75624 13.9992 8.63915 14C8.3428 13.9575 8.3428 13.9575 8.04988 13.6375C7.76209 10.9021 8.74876 8.41285 10.2559 6.28825C10.494 5.96214 10.736 5.64018 10.979 5.31835C11.0557 5.21008 11.1323 5.10181 11.2113 4.99025C12.4329 3.31261 14.055 2.33425 15.8121 1.47872C15.9441 1.41294 16.076 1.34715 16.212 1.27937C18.3464 0.32673 20.8963 0.0107059 23.1899 0.00886632Z" fill="#009D4B"/>
</svg>
