<svg width="214" height="34" viewBox="0 0 214 34" fill="none" xmlns="http://www.w3.org/2000/svg">
<path d="M128.184 4.43213H130.812C132.132 4.43213 133.188 4.61213 133.98 4.97213C134.772 5.33213 135.456 5.90813 136.032 6.70013C136.608 7.46813 137.28 8.63213 138.048 10.1921L140.136 14.4041L142.224 10.1921C142.992 8.63213 143.664 7.46813 144.24 6.70013C144.816 5.90813 145.5 5.33213 146.292 4.97213C147.084 4.61213 148.14 4.43213 149.46 4.43213H152.088V29.6321H147.48V9.72413C147.192 9.72413 146.952 9.85613 146.76 10.1201C146.568 10.3841 146.28 10.8521 145.896 11.5241L140.136 22.2161L134.376 11.5241C133.992 10.8521 133.704 10.3841 133.512 10.1201C133.32 9.85613 133.08 9.71213 132.792 9.68813V29.6321H128.184V4.43213Z" fill="#484848"/>
<path d="M115.251 14.4401C116.307 14.7041 117.183 15.1241 117.879 15.7001C118.575 16.2521 119.175 16.9841 119.679 17.8961C120.183 18.7841 120.711 20.0081 121.263 21.5681L124.143 29.6321H119.031L116.295 22.0721C115.959 21.1361 115.647 20.4281 115.359 19.9481C115.095 19.4441 114.711 19.0241 114.207 18.6881C113.703 18.3521 112.995 18.1121 112.083 17.9681L108.123 22.3601V29.6321H103.047V4.43213H108.123V15.9881L118.311 4.43213H124.287L115.251 14.4401Z" fill="#484848"/>
<path d="M88.1507 30.064C86.4227 30.064 84.9707 29.872 83.7947 29.488C82.6427 29.104 81.6707 28.576 80.8787 27.904C80.0867 27.232 79.2707 26.332 78.4307 25.204L81.8507 22.36C82.8347 23.728 83.7827 24.7 84.6947 25.276C85.6307 25.828 86.7827 26.104 88.1507 26.104C90.0467 26.104 91.4267 25.828 92.2907 25.276C93.1547 24.724 93.5867 23.836 93.5867 22.612C93.5867 21.988 93.3827 21.484 92.9747 21.1C92.5667 20.692 91.8587 20.32 90.8507 19.984C89.8667 19.648 88.3907 19.276 86.4227 18.868C84.1187 18.388 82.4027 17.536 81.2747 16.312C80.1707 15.064 79.6187 13.408 79.6187 11.344C79.6187 9.856 79.9907 8.56 80.7347 7.456C81.5027 6.352 82.5827 5.5 83.9747 4.9C85.3667 4.3 86.9867 4 88.8347 4C91.2347 4 93.1427 4.36 94.5587 5.08C95.9747 5.776 97.1267 6.808 98.0147 8.176L94.6667 10.912C93.9227 10.168 93.2987 9.604 92.7947 9.22C92.3147 8.812 91.7627 8.5 91.1387 8.284C90.5147 8.068 89.7467 7.96 88.8347 7.96C87.4667 7.96 86.4347 8.26 85.7387 8.86C85.0427 9.46 84.6947 10.324 84.6947 11.452C84.6947 12.508 85.1387 13.288 86.0267 13.792C86.9147 14.272 88.0547 14.668 89.4467 14.98C91.5107 15.412 93.1547 15.856 94.3787 16.312C95.6027 16.768 96.6227 17.5 97.4387 18.508C98.2547 19.516 98.6627 20.896 98.6627 22.648C98.6627 25.144 97.7867 27.004 96.0347 28.228C94.3067 29.452 91.6787 30.064 88.1507 30.064Z" fill="#484848"/>
<path d="M1.95809 14.8173C2.06281 14.8161 2.16752 14.815 2.27541 14.8138C2.62517 14.8109 2.97466 14.8138 3.32442 14.8168C3.57561 14.816 3.82679 14.8148 4.07798 14.8132C4.75944 14.8102 5.44081 14.8123 6.12227 14.8156C6.83556 14.8183 7.54885 14.8168 8.26214 14.816C9.45998 14.8152 10.6578 14.8179 11.8556 14.8225C13.2403 14.8278 14.6249 14.8278 16.0095 14.8249C17.3418 14.8223 18.674 14.8234 20.0063 14.8263C20.5732 14.8274 21.14 14.8272 21.7069 14.826C22.3745 14.8247 23.042 14.8267 23.7096 14.8313C23.9545 14.8324 24.1995 14.8324 24.4444 14.8312C24.7789 14.8298 25.1132 14.8324 25.4477 14.8361C25.6349 14.8366 25.822 14.8371 26.0148 14.8375C26.6106 14.9384 26.8729 15.1464 27.3004 15.5837C27.4798 15.9595 27.4795 16.1669 27.4818 16.5842C27.4835 16.7941 27.4835 16.7941 27.4853 17.0084C27.4857 17.1623 27.4861 17.3162 27.4865 17.4747C27.4876 17.6366 27.4886 17.7984 27.4897 17.9652C27.4928 18.5024 27.4947 19.0396 27.4962 19.5768C27.4969 19.76 27.4975 19.9432 27.4982 20.132C27.5015 21.1014 27.5037 22.0708 27.5052 23.0403C27.507 24.0427 27.5124 25.045 27.5187 26.0473C27.5228 26.8172 27.5241 27.587 27.5247 28.3568C27.5255 28.7264 27.5273 29.0959 27.5303 29.4654C27.5341 29.9824 27.534 30.4992 27.5329 31.0162C27.5359 31.2456 27.5359 31.2456 27.539 31.4796C27.5336 32.1746 27.5144 32.5449 27.1608 33.1493C26.7622 33.5293 26.5872 33.5729 26.0547 33.5725C25.9091 33.5728 25.7635 33.5731 25.6134 33.5734C25.4625 33.5695 25.3116 33.5655 25.1561 33.5615C25.0045 33.5633 24.853 33.5651 24.6969 33.567C23.5868 33.5547 23.5868 33.5547 23.2508 33.1964C22.968 32.693 22.9706 32.3512 22.9681 31.7683C22.9649 31.4534 22.9649 31.4534 22.9617 31.132C22.9617 30.9034 22.9617 30.6748 22.9617 30.4462C22.9598 30.2111 22.9577 29.976 22.9553 29.7409C22.9496 29.1226 22.9464 28.5044 22.944 27.8861C22.9401 26.8965 22.9338 25.907 22.9247 24.9174C22.9222 24.5721 22.9216 24.2269 22.9211 23.8816C22.9187 23.5666 22.9187 23.5666 22.9162 23.2452C22.9152 22.968 22.9152 22.968 22.9142 22.6852C22.873 22.2041 22.8232 21.937 22.5571 21.5453C22.1052 21.2595 21.7664 21.1721 21.2417 21.1687C21.1063 21.167 20.9708 21.1654 20.8313 21.1637C20.684 21.1636 20.5367 21.1634 20.385 21.1633C20.2289 21.162 20.0727 21.1606 19.9119 21.1592C19.3955 21.1552 18.8792 21.1537 18.3629 21.1526C18.0041 21.1511 17.6453 21.1496 17.2865 21.1481C16.5344 21.1454 15.7822 21.1441 15.0301 21.1436C14.0659 21.1427 13.1019 21.1365 12.1378 21.1289C11.3968 21.124 10.6558 21.1228 9.91477 21.1226C9.55929 21.1219 9.20381 21.1199 8.84834 21.1164C8.35132 21.112 7.85455 21.1127 7.35752 21.1148C7.13707 21.1111 7.13707 21.1111 6.91217 21.1074C6.222 21.1156 5.89007 21.1466 5.31048 21.5684C4.95061 22.1297 4.90948 22.424 4.9126 23.0958C4.91153 23.3053 4.91047 23.5147 4.90937 23.7305C4.91066 23.8416 4.91195 23.9526 4.91329 24.067C4.91732 24.4166 4.91654 24.7659 4.91457 25.1155C4.91129 25.8574 4.91439 26.5993 4.91788 27.3412C4.92123 28.2013 4.92194 29.0612 4.9178 29.9213C4.91727 30.2649 4.92062 30.6083 4.92419 30.9519C4.92363 31.1613 4.92306 31.3708 4.92248 31.5866C4.92346 31.7705 4.92444 31.9545 4.92545 32.144C4.83086 32.7558 4.629 33.0319 4.21627 33.4683C3.8352 33.5728 3.8352 33.5728 3.41583 33.5725C3.26379 33.5728 3.11174 33.5731 2.95509 33.5734C2.79733 33.5695 2.63958 33.5655 2.47705 33.5615C2.3193 33.5633 2.16154 33.5651 1.99901 33.567C0.861302 33.555 0.861302 33.555 0.403062 33.2333C-0.0517755 32.5803 0.0158159 31.9674 0.0210425 31.1781C0.0196803 31.013 0.0183181 30.8479 0.0169146 30.6777C0.0133231 30.1315 0.014399 29.5854 0.0158313 29.0392C0.0150039 28.6597 0.0140117 28.2803 0.0128615 27.9008C0.0112148 27.1052 0.0119401 26.3097 0.0142487 25.5141C0.0169657 24.4942 0.0132528 23.4746 0.00768874 22.4547C0.00421741 21.671 0.00444163 20.8872 0.0057543 20.1035C0.00588406 19.7275 0.00479549 19.3514 0.00247018 18.9754C-0.000282376 18.4497 0.00200658 17.9243 0.00560201 17.3986C0.00375335 17.2431 0.00190468 17.0876 0 16.9274C0.00200073 16.7837 0.00400146 16.64 0.00606281 16.492C0.00615551 16.3678 0.00624822 16.2437 0.00634373 16.1157C0.289105 15.0697 1.00859 14.8178 1.95809 14.8173Z" fill="#009D4B"/>
<path d="M23.6533 0.0087551C23.7879 0.00682049 23.9225 0.00488589 24.0612 0.00289265C24.1896 0.00258719 24.318 0.00228173 24.4504 0.001967C24.6244 0.000993337 24.6244 0.000993337 24.8019 0C25.0911 0.0383759 25.0911 0.0383759 25.3898 0.354331C25.8945 4.13344 24.6071 9.17082 22.5766 12.3099C21.8329 12.8862 21.0984 12.7741 20.2006 12.7537C19.9237 12.752 19.9237 12.752 19.6411 12.7503C19.1521 12.7467 18.6633 12.7396 18.1743 12.7308C17.6747 12.7227 17.175 12.7192 16.6753 12.7151C15.6961 12.7064 14.7172 12.6932 13.7381 12.6766C14.247 12.0364 14.7617 11.4174 15.3282 10.8327C15.4533 10.7026 15.5784 10.5725 15.7073 10.4384C15.9018 10.2365 15.9018 10.2365 16.1002 10.0305C17.7481 8.29952 19.0918 6.54952 20.3109 4.46175C19.73 4.71506 19.3206 5.13508 18.8731 5.58734C18.3418 6.12303 17.7985 6.61952 17.2176 7.09491C16.4109 7.77039 15.7046 8.52877 14.9907 9.31059C11.0264 13.6386 11.0264 13.6386 9.51228 13.8244C9.33956 13.8232 9.33956 13.8232 9.16334 13.8219C9.04742 13.8227 8.9315 13.8235 8.81206 13.8244C8.5098 13.7824 8.5098 13.7824 8.21104 13.4665C7.9175 10.7653 8.92386 8.30732 10.4611 6.20937C10.7039 5.88734 10.9508 5.56943 11.1987 5.25163C11.2768 5.14472 11.355 5.03781 11.4356 4.92766C12.6815 3.27106 14.336 2.30497 16.1282 1.46017C16.2628 1.39521 16.3974 1.33025 16.5361 1.26332C18.7131 0.322631 21.3139 0.0105716 23.6533 0.0087551Z" fill="#009D4B"/>
<path d="M38.9404 29.6321H34V4.43188H38.9404V29.6321ZM43.3604 4.43188C46.1921 4.43192 48.4237 4.84057 50.0557 5.65649C51.7117 6.47249 52.9001 7.79246 53.6201 9.61646C54.364 11.4164 54.7363 13.8887 54.7363 17.0325C54.7363 20.1763 54.3641 22.6607 53.6201 24.4846C52.9001 26.2844 51.7115 27.5925 50.0557 28.4084C48.4238 29.2243 46.192 29.632 43.3604 29.6321H40.9404V25.6721H43.3604C44.944 25.6721 46.1916 25.3958 47.1035 24.844C48.0155 24.292 48.6639 23.3918 49.0479 22.1438C49.4558 20.8959 49.6601 19.1922 49.6602 17.0325C49.6602 14.8725 49.4559 13.1682 49.0479 11.9202C48.6639 10.6722 48.0155 9.77197 47.1035 9.21997C46.1916 8.66818 44.9439 8.39189 43.3604 8.39185H40.9404V4.43188H43.3604Z" fill="#484848"/>
<path d="M67.9404 8.39185H67.4062C66.0863 8.39187 65.1021 8.70439 64.4541 9.32837C63.8303 9.95238 63.5186 10.9367 63.5186 12.2805V15.052H74.2461V19.012H63.5186V21.7844C63.5186 23.1043 63.8301 24.0886 64.4541 24.7366C65.1021 25.3605 66.0864 25.6721 67.4062 25.6721H75.9023V29.6321H67.4062C64.2144 29.6321 61.9223 28.9604 60.5303 27.6165C59.1383 26.2725 58.4424 24.3283 58.4424 21.7844V12.2805C58.4424 9.73666 59.1384 7.79248 60.5303 6.44849C61.9223 5.10451 64.2143 4.4319 67.4062 4.43188H67.9404V8.39185ZM75.8301 8.39185H69.9404V4.43188H75.8301V8.39185Z" fill="#484848"/>
<path d="M163.283 8.67114V29.6321H158.207V8.63989L163.283 8.67114ZM163.283 6.67114L158.207 6.63989V4.43188H163.283V6.67114Z" fill="#484848"/>
<path d="M174.139 26.6702V29.6321H169.387V26.6409L174.139 26.6702ZM184.255 25.3118H184.327C184.735 25.3117 185.01 25.1437 185.154 24.8079C185.298 24.4478 185.371 23.8116 185.371 22.8997V4.43188H190.123V23.6917C190.123 25.6357 189.727 27.1124 188.935 28.1204C188.143 29.1281 186.871 29.632 185.119 29.6321H181.555L174.139 12.4602V24.6702L169.387 24.6409V4.43188H175.11L184.255 25.3118Z" fill="#484848"/>
<path d="M206.156 26.6702V29.6321H201.08V26.6389L206.156 26.6702ZM213.752 8.39185H206.156V24.6702L201.08 24.6389V8.39185H193.484V4.43188H213.752V8.39185Z" fill="#484848"/>
</svg>
